# xmcd
#
# Track frame offsets:
#	150
#	12210
#	25865
#	36701
#	48725
#	61463
#	74586
#	88689
#	99995
#	113230
#	123856
#	135647
#	148041
#	159332
#	171425
#	182363
#	193138
#	207503
#	220085
#
# Disc length: 3109 seconds
#
# Revision: 1
# Processed by: cddbd v1.4PL0 Copyright (c) Steve Scherf et al.
# Submitted via: audiograbber 1.81.02
#
DISCID=1c0c2313
DTITLE=T-Bone Walker - LA Days
DYEAR=2000
DGENRE=Blues
TTITLE0=Bobby Sox Blues
TTITLE1=Stormy Monday
TTITLE2=Lonesome Women Blues
TTITLE3=Too Much Trouble Blues
TTITLE4=Hypin' Women Blues
TTITLE5=Vacation Blues
TTITLE6=So Blue Blues
TTITLE7=Strollin' With Bones
TTITLE8=You Don't Love Me
TTITLE9=Travellin' Blues
TTITLE10=Evil Hearted Woman
TTITLE11=Glamour Girl
TTITLE12=The Hustle Is On
TTITLE13=Alimony Blues
TTITLE14=Welcome Blues
TTITLE15=I'm About To Lose My Mind
TTITLE16=Cold Cold Feeling
TTITLE17=Blues Is A Woman
TTITLE18=I Got The Blues
EXTD=Recorded in Los Angeles between 1946 and 1951
EXTT0=
EXTT1=
EXTT2=
EXTT3=
EXTT4=
EXTT5=
EXTT6=
EXTT7=
EXTT8=
EXTT9=
EXTT10=
EXTT11=
EXTT12=
EXTT13=
EXTT14=
EXTT15=
EXTT16=
EXTT17=
EXTT18=
PLAYORDER=
